<?xml version="1.0" standalone="no"?>
<!DOCTYPE svg PUBLIC "-//W3C//DTD SVG 20010904//EN"
 "http://www.w3.org/TR/2001/REC-SVG-20010904/DTD/svg10.dtd">
<svg version="1.0" xmlns="http://www.w3.org/2000/svg"
 width="700.000000pt" height="700.000000pt" viewBox="0 0 700.000000 700.000000"
 preserveAspectRatio="xMidYMid meet">
<metadata>
Created by potrace 1.14, written by Peter Selinger 2001-2017
</metadata>
<g transform="translate(0.000000,700.000000) scale(0.100000,-0.100000)"
fill="#000000" stroke="none">
<path d="M3278 6996 c-1 -2 -42 -6 -89 -10 -47 -4 -95 -8 -106 -10 -11 -3 -44
-7 -74 -11 -157 -19 -422 -79 -588 -135 -768 -255 -1410 -745 -1847 -1410
-102 -156 -192 -318 -256 -463 -27 -62 -53 -121 -58 -132 -46 -95 -150 -427
-176 -560 -2 -11 -10 -54 -19 -95 -29 -147 -35 -194 -52 -370 -15 -163 -8
-592 12 -711 2 -13 6 -46 9 -74 47 -409 239 -952 466 -1318 30 -48 60 -95 65
-105 24 -42 133 -191 208 -285 163 -202 344 -382 557 -552 92 -74 370 -265
386 -265 4 0 15 -6 23 -14 29 -25 304 -161 431 -213 158 -65 356 -131 440
-148 8 -2 53 -12 100 -24 109 -26 200 -43 299 -57 25 -3 57 -8 71 -10 163 -25
682 -25 842 1 13 2 46 7 73 10 71 10 87 13 115 18 14 3 43 8 65 12 22 4 67 14
100 22 33 8 71 17 85 20 32 5 175 48 270 80 189 64 419 167 584 262 49 28 90
51 92 51 10 0 260 174 347 241 155 121 329 284 457 428 36 41 70 79 76 85 29
30 185 242 240 326 120 184 241 412 315 597 66 163 147 422 175 558 16 79 54
301 59 350 4 33 9 71 11 85 9 47 11 525 3 605 -15 165 -21 220 -24 225 -2 3
-6 30 -10 60 -9 75 -69 337 -98 435 -108 352 -240 634 -443 940 -427 647
-1064 1136 -1799 1383 -168 57 -420 119 -555 137 -19 3 -46 7 -60 10 -13 2
-52 7 -86 11 -33 3 -74 8 -90 10 -32 5 -540 14 -546 10z m337 -655 c26 -1 34
-8 56 -54 50 -100 59 -132 60 -222 0 -72 -29 -173 -70 -235 -16 -25 -79 -103
-140 -174 -140 -161 -164 -196 -191 -277 -18 -53 -21 -80 -18 -155 7 -129 35
-184 182 -359 65 -77 127 -160 138 -184 57 -126 -5 -285 -134 -341 -83 -36
-127 -31 -361 44 -270 87 -309 88 -472 10 -124 -59 -182 -132 -192 -243 -6
-70 8 -123 48 -184 26 -39 53 -60 153 -118 66 -38 128 -74 136 -79 126 -76
339 -189 388 -207 121 -44 193 -50 597 -52 416 -2 455 -6 571 -61 181 -87 363
-288 414 -460 29 -96 31 -113 31 -260 -1 -199 -35 -315 -132 -446 -62 -85
-139 -146 -274 -219 -122 -67 -237 -168 -318 -281 -59 -82 -105 -192 -147
-355 -42 -159 -83 -251 -147 -329 -117 -143 -311 -242 -441 -226 -120 14 -203
73 -259 186 l-28 55 -1 320 c-1 176 -5 338 -8 360 -17 108 -110 237 -208 290
-113 61 -174 131 -205 235 -14 46 -17 111 -18 380 -1 179 -5 345 -9 370 -26
160 -143 318 -289 390 -61 30 -107 44 -447 141 -96 28 -220 63 -275 80 -55 16
-131 39 -170 50 -88 27 -215 89 -280 138 -117 89 -192 182 -280 346 -26 50
-56 105 -67 122 -20 33 -20 33 3 100 121 368 366 758 664 1058 377 380 801
623 1335 764 80 21 82 22 225 45 141 24 153 25 275 32 63 4 116 7 117 8 1 1
115 -1 188 -3z m2492 -1706 c79 -179 167 -467 188 -615 4 -24 8 -47 10 -50 2
-3 6 -30 9 -60 3 -30 8 -65 10 -78 28 -138 20 -671 -10 -701 -9 -9 -427 100
-482 126 -71 33 -162 125 -195 195 -42 90 -267 779 -275 843 -20 150 61 323
189 406 28 19 137 68 242 110 l191 77 40 -77 c22 -42 59 -121 83 -176z"/>
</g>
</svg>
